<!DOCTYPE svg PUBLIC "-//W3C//DTD SVG 20010904//EN" "http://www.w3.org/TR/2001/REC-SVG-20010904/DTD/svg10.dtd">
<svg version="1.0" xmlns="http://www.w3.org/2000/svg" width="250px" height="250px" viewBox="0 0 2500 2500" preserveAspectRatio="xMidYMid meet">
<g id="layer101" fill="#151515" stroke="none">
 <path d="M1001 2419 c-567 -119 -971 -601 -971 -1159 0 -566 401 -1043 982 -1166 126 -27 362 -24 493 6 256 57 461 173 639 361 228 241 344 554 321 867 -12 176 -46 295 -131 462 -163 322 -476 555 -843 630 -135 27 -357 27 -490 -1z m434 -29 c39 -5 110 -21 160 -35 667 -194 1011 -918 738 -1552 -147 -339 -455 -585 -838 -668 -182 -40 -432 -27 -620 32 -319 100 -601 357 -722 658 -66 163 -77 230 -77 435 0 168 3 194 27 283 127 473 536 811 1035 857 90 8 177 5 297 -10z"/>
 <path d="M1105 2360 c-266 -41 -476 -144 -661 -325 -175 -171 -270 -347 -319 -587 -24 -113 -16 -339 15 -451 119 -438 472 -753 934 -833 109 -19 301 -14 416 11 360 79 680 344 815 676 155 380 92 778 -175 1105 -155 188 -387 329 -639 385 -101 22 -300 32 -386 19z"/>
 </g>
<g id="layer102" fill="#f4f4f4" stroke="none">
 <path d="M942 1543 c-17 -3 -22 -10 -20 -26 3 -19 11 -22 51 -25 l47 -3 0 -320 0 -319 -50 0 c-47 0 -50 -2 -50 -25 l0 -25 130 0 130 0 0 25 c0 23 -3 25 -50 25 l-50 0 0 320 0 320 182 -2 c174 -3 183 -4 186 -23 17 -108 23 -125 48 -125 18 0 24 5 23 23 0 28 -25 166 -30 171 -6 5 -521 13 -547 9z"/>
 <path d="M1100 1441 c0 -17 6 -21 30 -21 l30 0 0 -215 0 -215 -30 0 c-20 0 -30 -5 -30 -15 0 -13 21 -15 128 -15 107 0 132 3 158 19 50 30 60 120 19 169 l-25 30 29 31 c35 38 45 75 36 140 -5 36 -15 56 -36 77 -30 29 -32 29 -170 32 -136 4 -139 3 -139 -17z m264 -32 c43 -20 59 -96 31 -149 -21 -41 -63 -60 -135 -60 l-60 0 0 110 0 110 70 0 c38 0 80 -5 94 -11z m-3 -278 c21 -22 29 -39 29 -65 0 -51 -42 -76 -127 -76 l-63 0 0 85 0 85 66 0 c59 0 68 -3 95 -29z"/>
 </g>

</svg>